<mxfile host="app.diagrams.net" agent="Mozilla/5.0 (Windows NT 10.0; Win64; x64) AppleWebKit/537.36 (KHTML, like Gecko) Chrome/129.0.0.0 Safari/537.36" version="24.7.16">
  <diagram id="C5RBs43oDa-KdzZeNtuy" name="Page-1">
    <mxGraphModel dx="1284" dy="914" grid="1" gridSize="10" guides="1" tooltips="1" connect="1" arrows="1" fold="1" page="1" pageScale="1" pageWidth="827" pageHeight="1169" math="0" shadow="0">
      <root>
        <mxCell id="WIyWlLk6GJQsqaUBKTNV-0" />
        <mxCell id="WIyWlLk6GJQsqaUBKTNV-1" parent="WIyWlLk6GJQsqaUBKTNV-0" />
        <mxCell id="9rRE7s3ohfMQkXo8_AE0-0" value="Start" style="ellipse;whiteSpace=wrap;html=1;" vertex="1" parent="WIyWlLk6GJQsqaUBKTNV-1">
          <mxGeometry x="260" y="140" width="120" height="80" as="geometry" />
        </mxCell>
        <mxCell id="9rRE7s3ohfMQkXo8_AE0-1" value="input a,b,c" style="shape=parallelogram;perimeter=parallelogramPerimeter;whiteSpace=wrap;html=1;fixedSize=1;" vertex="1" parent="WIyWlLk6GJQsqaUBKTNV-1">
          <mxGeometry x="260" y="280" width="120" height="60" as="geometry" />
        </mxCell>
        <mxCell id="9rRE7s3ohfMQkXo8_AE0-2" value="" style="endArrow=classic;html=1;rounded=0;" edge="1" parent="WIyWlLk6GJQsqaUBKTNV-1">
          <mxGeometry width="50" height="50" relative="1" as="geometry">
            <mxPoint x="322" y="220" as="sourcePoint" />
            <mxPoint x="321.94" y="280" as="targetPoint" />
          </mxGeometry>
        </mxCell>
        <mxCell id="9rRE7s3ohfMQkXo8_AE0-3" value="d = b^2 - 4ac" style="rounded=0;whiteSpace=wrap;html=1;" vertex="1" parent="WIyWlLk6GJQsqaUBKTNV-1">
          <mxGeometry x="260" y="390" width="120" height="60" as="geometry" />
        </mxCell>
        <mxCell id="9rRE7s3ohfMQkXo8_AE0-4" value="" style="endArrow=classic;html=1;rounded=0;" edge="1" parent="WIyWlLk6GJQsqaUBKTNV-1">
          <mxGeometry width="50" height="50" relative="1" as="geometry">
            <mxPoint x="320" y="340" as="sourcePoint" />
            <mxPoint x="319.5" y="390" as="targetPoint" />
          </mxGeometry>
        </mxCell>
        <mxCell id="9rRE7s3ohfMQkXo8_AE0-5" value="if d &amp;lt; 0" style="rhombus;whiteSpace=wrap;html=1;" vertex="1" parent="WIyWlLk6GJQsqaUBKTNV-1">
          <mxGeometry x="280" y="490" width="80" height="80" as="geometry" />
        </mxCell>
        <mxCell id="9rRE7s3ohfMQkXo8_AE0-6" value="" style="endArrow=classic;html=1;rounded=0;" edge="1" parent="WIyWlLk6GJQsqaUBKTNV-1">
          <mxGeometry width="50" height="50" relative="1" as="geometry">
            <mxPoint x="280" y="530" as="sourcePoint" />
            <mxPoint x="230" y="530" as="targetPoint" />
          </mxGeometry>
        </mxCell>
        <mxCell id="9rRE7s3ohfMQkXo8_AE0-7" value="output&lt;div&gt;&quot;no real roots&quot;&lt;/div&gt;" style="shape=parallelogram;perimeter=parallelogramPerimeter;whiteSpace=wrap;html=1;fixedSize=1;" vertex="1" parent="WIyWlLk6GJQsqaUBKTNV-1">
          <mxGeometry x="120" y="500" width="120" height="60" as="geometry" />
        </mxCell>
        <mxCell id="9rRE7s3ohfMQkXo8_AE0-8" value="Yes" style="text;html=1;align=center;verticalAlign=middle;whiteSpace=wrap;rounded=0;" vertex="1" parent="WIyWlLk6GJQsqaUBKTNV-1">
          <mxGeometry x="230" y="500" width="60" height="30" as="geometry" />
        </mxCell>
        <mxCell id="9rRE7s3ohfMQkXo8_AE0-9" value="" style="endArrow=classic;html=1;rounded=0;" edge="1" parent="WIyWlLk6GJQsqaUBKTNV-1">
          <mxGeometry width="50" height="50" relative="1" as="geometry">
            <mxPoint x="320" y="450" as="sourcePoint" />
            <mxPoint x="319.5" y="490" as="targetPoint" />
          </mxGeometry>
        </mxCell>
        <mxCell id="9rRE7s3ohfMQkXo8_AE0-10" value="No" style="text;html=1;align=center;verticalAlign=middle;whiteSpace=wrap;rounded=0;" vertex="1" parent="WIyWlLk6GJQsqaUBKTNV-1">
          <mxGeometry x="360" y="500" width="60" height="30" as="geometry" />
        </mxCell>
        <mxCell id="9rRE7s3ohfMQkXo8_AE0-11" value="" style="endArrow=classic;html=1;rounded=0;" edge="1" parent="WIyWlLk6GJQsqaUBKTNV-1">
          <mxGeometry width="50" height="50" relative="1" as="geometry">
            <mxPoint x="360" y="529" as="sourcePoint" />
            <mxPoint x="449.5" y="529" as="targetPoint" />
          </mxGeometry>
        </mxCell>
        <mxCell id="9rRE7s3ohfMQkXo8_AE0-12" value="If d == 0" style="rhombus;whiteSpace=wrap;html=1;" vertex="1" parent="WIyWlLk6GJQsqaUBKTNV-1">
          <mxGeometry x="450" y="490" width="80" height="80" as="geometry" />
        </mxCell>
        <mxCell id="9rRE7s3ohfMQkXo8_AE0-13" value="" style="endArrow=classic;html=1;rounded=0;" edge="1" parent="WIyWlLk6GJQsqaUBKTNV-1">
          <mxGeometry width="50" height="50" relative="1" as="geometry">
            <mxPoint x="530" y="530" as="sourcePoint" />
            <mxPoint x="619.5" y="530" as="targetPoint" />
          </mxGeometry>
        </mxCell>
        <mxCell id="9rRE7s3ohfMQkXo8_AE0-14" value="output&lt;div&gt;x&lt;/div&gt;" style="shape=parallelogram;perimeter=parallelogramPerimeter;whiteSpace=wrap;html=1;fixedSize=1;" vertex="1" parent="WIyWlLk6GJQsqaUBKTNV-1">
          <mxGeometry x="610" y="600" width="120" height="60" as="geometry" />
        </mxCell>
        <mxCell id="9rRE7s3ohfMQkXo8_AE0-15" value="Yes" style="text;html=1;align=center;verticalAlign=middle;whiteSpace=wrap;rounded=0;" vertex="1" parent="WIyWlLk6GJQsqaUBKTNV-1">
          <mxGeometry x="540" y="490" width="60" height="30" as="geometry" />
        </mxCell>
        <mxCell id="9rRE7s3ohfMQkXo8_AE0-16" value="x = -b/2a" style="rounded=0;whiteSpace=wrap;html=1;" vertex="1" parent="WIyWlLk6GJQsqaUBKTNV-1">
          <mxGeometry x="620" y="500" width="120" height="60" as="geometry" />
        </mxCell>
        <mxCell id="9rRE7s3ohfMQkXo8_AE0-17" value="" style="endArrow=classic;html=1;rounded=0;exitX=0.5;exitY=1;exitDx=0;exitDy=0;entryX=0.592;entryY=-0.025;entryDx=0;entryDy=0;entryPerimeter=0;" edge="1" parent="WIyWlLk6GJQsqaUBKTNV-1" source="9rRE7s3ohfMQkXo8_AE0-16" target="9rRE7s3ohfMQkXo8_AE0-14">
          <mxGeometry width="50" height="50" relative="1" as="geometry">
            <mxPoint x="635.25" y="585" as="sourcePoint" />
            <mxPoint x="724.75" y="585" as="targetPoint" />
          </mxGeometry>
        </mxCell>
        <mxCell id="9rRE7s3ohfMQkXo8_AE0-18" value="" style="endArrow=classic;html=1;rounded=0;" edge="1" parent="WIyWlLk6GJQsqaUBKTNV-1">
          <mxGeometry width="50" height="50" relative="1" as="geometry">
            <mxPoint x="490" y="569.35" as="sourcePoint" />
            <mxPoint x="490" y="630" as="targetPoint" />
          </mxGeometry>
        </mxCell>
        <mxCell id="9rRE7s3ohfMQkXo8_AE0-19" value="No" style="text;html=1;align=center;verticalAlign=middle;whiteSpace=wrap;rounded=0;" vertex="1" parent="WIyWlLk6GJQsqaUBKTNV-1">
          <mxGeometry x="440" y="584" width="60" height="30" as="geometry" />
        </mxCell>
        <mxCell id="9rRE7s3ohfMQkXo8_AE0-20" value="x1 = -b + sqrt(d) / 2a" style="rounded=0;whiteSpace=wrap;html=1;" vertex="1" parent="WIyWlLk6GJQsqaUBKTNV-1">
          <mxGeometry x="430" y="630" width="120" height="60" as="geometry" />
        </mxCell>
        <mxCell id="9rRE7s3ohfMQkXo8_AE0-22" value="" style="endArrow=classic;html=1;rounded=0;" edge="1" parent="WIyWlLk6GJQsqaUBKTNV-1">
          <mxGeometry width="50" height="50" relative="1" as="geometry">
            <mxPoint x="489.47" y="690" as="sourcePoint" />
            <mxPoint x="489.47" y="750" as="targetPoint" />
          </mxGeometry>
        </mxCell>
        <mxCell id="9rRE7s3ohfMQkXo8_AE0-23" value="x2 = -b-sqrt(d) / 2a" style="rounded=0;whiteSpace=wrap;html=1;" vertex="1" parent="WIyWlLk6GJQsqaUBKTNV-1">
          <mxGeometry x="430" y="750" width="120" height="60" as="geometry" />
        </mxCell>
        <mxCell id="9rRE7s3ohfMQkXo8_AE0-24" value="output&lt;div&gt;x1, x2&lt;/div&gt;" style="shape=parallelogram;perimeter=parallelogramPerimeter;whiteSpace=wrap;html=1;fixedSize=1;" vertex="1" parent="WIyWlLk6GJQsqaUBKTNV-1">
          <mxGeometry x="430" y="860" width="120" height="60" as="geometry" />
        </mxCell>
        <mxCell id="9rRE7s3ohfMQkXo8_AE0-25" value="" style="endArrow=classic;html=1;rounded=0;" edge="1" parent="WIyWlLk6GJQsqaUBKTNV-1">
          <mxGeometry width="50" height="50" relative="1" as="geometry">
            <mxPoint x="490" y="810" as="sourcePoint" />
            <mxPoint x="489.47" y="860" as="targetPoint" />
          </mxGeometry>
        </mxCell>
        <mxCell id="9rRE7s3ohfMQkXo8_AE0-26" value="End" style="ellipse;whiteSpace=wrap;html=1;" vertex="1" parent="WIyWlLk6GJQsqaUBKTNV-1">
          <mxGeometry x="430" y="970" width="120" height="80" as="geometry" />
        </mxCell>
        <mxCell id="9rRE7s3ohfMQkXo8_AE0-27" value="" style="endArrow=classic;html=1;rounded=0;" edge="1" parent="WIyWlLk6GJQsqaUBKTNV-1">
          <mxGeometry width="50" height="50" relative="1" as="geometry">
            <mxPoint x="490" y="920" as="sourcePoint" />
            <mxPoint x="489.47" y="970" as="targetPoint" />
          </mxGeometry>
        </mxCell>
      </root>
    </mxGraphModel>
  </diagram>
</mxfile>
